<?xml version="1.0" standalone="no"?>
<!DOCTYPE svg PUBLIC "-//W3C//DTD SVG 20010904//EN"
 "http://www.w3.org/TR/2001/REC-SVG-20010904/DTD/svg10.dtd">
<svg version="1.0" xmlns="http://www.w3.org/2000/svg"
 width="700.000000pt" height="700.000000pt" viewBox="0 0 700.000000 700.000000"
 preserveAspectRatio="xMidYMid meet">
<metadata>
Created by potrace 1.14, written by Peter Selinger 2001-2017
</metadata>
<g transform="translate(0.000000,700.000000) scale(0.100000,-0.100000)"
fill="#000000" stroke="none">
<path d="M3022 5959 c-246 -32 -494 -170 -647 -362 -273 -341 -297 -811 -61
-1177 56 -87 172 -209 253 -267 38 -27 60 -49 57 -57 -3 -8 -121 -447 -263
-977 l-258 -964 -74 -16 c-170 -36 -283 -91 -324 -156 l-20 -32 -667 -1 -667
0 -30 -92 c-43 -137 -54 -208 -54 -358 -1 -146 16 -256 59 -391 l25 -79 1824
0 1824 0 20 68 c37 126 52 233 52 377 0 171 -19 304 -62 443 l-11 32 -547 0
-547 0 -23 30 c-35 48 -96 87 -182 115 -43 15 -79 28 -79 30 0 8 481 1828 485
1835 2 4 55 10 117 13 308 15 590 179 767 448 71 108 116 216 143 349 16 78
19 120 15 235 -6 157 -30 261 -92 392 -182 388 -605 618 -1033 562z"/>
<path d="M5435 4406 c-168 -42 -294 -177 -326 -350 -50 -272 210 -536 480
-487 185 34 329 175 362 354 40 216 -115 438 -339 486 -66 14 -112 13 -177 -3z"/>
<path d="M4360 4139 c-172 -29 -320 -180 -349 -356 -41 -254 165 -493 424
-493 215 1 406 179 422 395 21 276 -223 499 -497 454z"/>
<path d="M3212 3859 c-19 -5 -36 -19 -41 -32 -24 -63 -172 -650 -167 -662 3
-8 33 -35 67 -60 131 -96 299 -113 442 -42 91 45 156 112 200 205 30 63 32 74
32 177 0 103 -2 114 -32 178 -42 89 -121 168 -210 210 -59 27 -80 32 -163 34
-52 1 -110 -2 -128 -8z"/>
<path d="M5705 3366 c-214 -53 -361 -270 -325 -479 40 -233 267 -399 489 -358
167 31 292 142 342 302 96 307 -193 613 -506 535z"/>
<path d="M4626 3090 c-126 -22 -249 -121 -309 -247 -30 -63 -32 -75 -32 -173
1 -136 23 -196 106 -284 104 -112 245 -163 379 -138 263 48 418 302 340 555
-61 197 -275 324 -484 287z"/>
<path d="M3485 2806 c-193 -61 -316 -239 -303 -439 6 -95 48 -187 119 -262
l52 -55 254 0 254 0 50 50 c76 76 112 162 117 276 3 69 0 105 -13 145 -43 132
-143 235 -272 280 -65 22 -195 25 -258 5z"/>
</g>
</svg>
